<?xml version="1.0" encoding="UTF-8"?>
<svg id="Camada_1" data-name="Camada 1" xmlns="http://www.w3.org/2000/svg" viewBox="0 0 686.74 729.19">
  <path d="M198.17,525.29c-73.56-70.34-85.36-185.38-36.1-273.3,5-8.93,11.79-16.96,16.14-26.29l-25.63,12.8c-99.8,58.32-124.41,144.5-80.37,251.49,17.12,41.58,45.47,78.28,77.62,109.21l-.02,1.93-14.02,22.02c-47.86-41.7-83.86-97.21-101.07-158.56C2.14,348.5,29.58,225.88,108.81,135.81,199.35,32.87,352.91-4.79,477.76,57.43c-20.55,35.09-43.52,68.65-71.36,98.38-2.69,2.87-12.53,13.65-15.6,13.49-104.82-24.47-198.77,42.03-225.28,143.07-17.56,66.93-1.44,139.46,46.5,189.6l-13.85,23.32ZM438.84,68.93c-78.3-28.2-162.8-17.59-234.68,22.43-5.67,3.16-12.57,6.87-16.95,11.5,32.15-7.72,66.93-4.76,98.38,4.98,43.83,13.58,87.91,45.55,126.81,2.03,10.51-11.76,19.34-27.04,26.45-40.94ZM305.03,143.81c.39-1.96-.91-2.38-2.29-3.19-3.24-1.9-10.36-4.43-14.16-5.81-59.08-21.44-137.91-14.41-178.23,38.49-1.13,1.48-7.34,9.01-6.01,10.45l27.28-15.15c26.83-12.02,55.41-21.84,85.01-23.83,1.15-.08,5.53-.72,5.53,1.03-36.98,17.25-75.52,35.16-109.75,57.52-12.16,7.94-24.32,16.07-32.85,28.06-12.01,16.89-17.72,39.23-22.15,59.23,2.11.46,2.27-1.07,3.17-2.32,40.91-56.99,84.42-73.39,144.63-104.01,9.77-4.97,19.1-11.13,28.91-16.02,22.19-11.07,46.4-20.48,70.91-24.45Z"/>
  <path d="M469.79,336.55l25.48-27.94,160.15.08c15.17,77.97,5.32,160.75-33.68,230.25-46.21,82.34-123.69,144.81-217.66,162.79-78.51,15.02-159.03-4.58-225.74-46.74-.51-.87-.09-2.02.38-2.88,1.38-2.53,10.88-12.97,13.44-15.53.98-.98,3.26-3.21,4.53-3.12,76.67,48.46,174.82,59.71,258.8,22.81,68.53-30.11,126.19-84.66,121.2-165.49-3.42-55.41-54.45-94.86-108.89-79.33l21.9,11.54c42.21,35.41,24.03,88.53-11.9,120.78-59.24,53.16-148.83,61.41-219.07,25.33l-1.56-2.29,16.6-19.63c20.81,7.33,40.52,13.97,62.73,16.04,47.35,4.42,104.88-16.2,135.81-52.91,34.71-41.2,4.58-88.47-48.12-71.09-5.86,1.93-12.89,6.55-17.99,7.98-1.57.44-2.54.78-2.29-1.29.76-6.5,8.27-19.19,12.16-24.81,21.95-31.73,60.21-45.72,97.86-38.32,59.46,11.68,92.78,67.33,91.17,125.51,6.46-9.92,11.04-22.75,14.75-34.18,12.47-38.41,19.51-92.09,12.62-131.99-.35-2.03-.79-4.13-2.4-5.59h-160.27Z"/>
  <path d="M385.92,308.59h78.88l-336.01,366.49c-1.6-.93.37-2.24.9-3.09,3.69-5.93,7.44-11.88,11.17-17.79,59.26-93.86,119.83-186.94,177.73-281.66l-1.07-2.04h-69.4L484.28,102.87l-98.36,205.71ZM289.06,352.52h62.91l-96.37,155.78,167.26-181.74h-64.9l54.9-112.37-1.47-1.47-122.33,139.8Z"/>
  <path d="M218.16,610.16c-.4-1.51.39-1.65.98-2.5,4.24-6.11,11.88-12.28,16.64-18.3,8.03,2.58,14.94,7.61,22.65,11,71.94,31.6,152.78,25.41,217.24-19.76,31.69-22.21,58.52-54.31,63.9-93.88.54-3.97-1.46-10.04,2.11-12.36,19.38,84.04-57.46,146.88-130.58,166.49-53.78,14.42-113.27,7.34-163.65-15.52-10.03-4.55-19.25-10.64-29.28-15.17Z"/>
  <path d="M529.71,272.63l28.89-78.45-1.43-1.42-62.94,44.91c-2.11.28-1.25-.16-1.46-1.49-1.3-8.39-2.21-16.68-3.99-25-.3-1.39.85-2.89-1.51-2.45l-65.41,69.89,77.44-137.75,2.42-2.06,8.49,55.92,124.32-78.88-104.83,156.78Z"/>
  <path d="M119.3,294.6c-2.79,11.4-7.11,22.4-9.51,33.92-16.85,80.91,13.62,164.21,72.28,220.38l-14.33,23.3c-14.97-14.16-28.78-29.33-40.66-46.2-45.92-65.16-75.29-170.21-7.78-231.4Z"/>
  <polygon points="527.72 159.79 533.62 76.55 530.46 75.07 494.76 86.88 506.26 62.95 619.56 20.98 527.72 159.79"/>
</svg>